<?xml version="1.0" encoding="UTF-8"?>
<svg width="256" height="160" version="1.1" viewBox="0 0 256 160" xmlns="http://www.w3.org/2000/svg">
 <g>
  <path d="m120 11c-20 0-43 29-78 80-5.4-27-14-73-16-80h-13c2 7 13 62 20 93h18c13-21 23-37 31-49-1.1 4.7-1.6 9.5-1.6 14 0 12 6.1 20 13 27 6.7 6.5 13 8 25 8h31l2-11h-30c-8.4 0-15-0.54-19-5-4.4-4.5-8.5-9.9-8.5-18 0-5.1 0.65-10 1.9-15 1.3-5 3.3-9.8 5.8-14 3.9-7 8.4-12 14-15 6-3 14-4 21-4l64 0.062c11 0 19 2.1 24 6.3 5 4.2 7.5 11 7.5 20 0 15-3.9 26-12 34s-19 12-33 12h-16l13-68h-13l-14 78h27c10 0 19-1.3 27-3.8 7.6-2.5 14-6.4 19-12 4.9-5 8.8-11 12-19 2.8-7.4 4.2-15 4.2-23 0-12-3.7-21-11-27-7.3-6.1-18-8.9-32-8.9z" fill="#86a7ac" stop-color="#000000" style="-inkscape-stroke:none;font-variation-settings:normal"/>
  <path d="m121 116c-3.9 0-7.1 0.77-9.7 2.3-2.5 1.5-4.4 3.6-5.6 6.3-1.2 2.7-1.8 6-1.8 9.7s0.6 6.9 1.8 9.7c1.2 2.8 3.1 4.9 5.6 6.4 2.5 1.5 5.7 2.3 9.6 2.3 3.9 0 7.1-0.77 9.6-2.3s4.3-3.7 5.5-6.4c1.2-2.8 1.9-6 1.9-9.7s-0.62-6.9-1.9-9.7c-1.2-2.8-3-4.9-5.5-6.4-2.5-1.5-5.7-2.3-9.6-2.3zm-61 0.55v36h7.5v-14h4.1l8.5 14h8.4l-10-16c1.2-0.53 2.3-1.2 3.2-2 1-0.87 1.8-1.9 2.4-3.1 0.63-1.2 0.95-2.7 0.95-4.3 0-3.6-1.2-6.3-3.5-8.1-2.3-1.8-5.9-2.6-11-2.6h-10zm99 0v36h6.8v-17c0-1.2-0.033-2.6-0.1-4.1-0.067-1.5-0.13-3-0.2-4.3l-0.15-3h0.2l8.6 28h6.9l9.2-28h0.2l-0.15 3c-0.033 1.3-0.084 2.7-0.15 4.1-0.033 1.5-0.049 2.8-0.049 3.9v17h7v-36h-10l-9 27h-0.15l-8.4-27h-10zm-37 5.8c3.2 0 5.5 1.1 6.9 3.2s2.1 5.1 2.1 8.8c0 3.7-0.7 6.7-2.1 8.8-1.4 2.1-3.7 3.2-6.9 3.2-3.2 0-5.5-1.1-6.9-3.2-1.4-2.2-2.2-5.1-2.2-8.8 0-3.8 0.72-6.7 2.2-8.8s3.7-3.2 6.9-3.2zm-54 0.45h2.3c2.5 0 4.3 0.37 5.4 1.1 1.2 0.7 1.8 1.9 1.8 3.6 0 1.6-0.55 2.9-1.7 3.7-1.1 0.83-2.8 1.2-5.3 1.2h-2.5v-9.7z" fill="#666666"/>
 </g>
</svg>
