<?xml version="1.0" encoding="UTF-8" standalone="no"?>
<!-- Created with Inkscape (http://www.inkscape.org/) -->

<svg
   width="256"
   height="160"
   viewBox="0 0 256 160"
   version="1.1"
   id="svg5"
   inkscape:version="1.2.2 (b0a8486541, 2022-12-01)"
   sodipodi:docname="logo-orig.svg"
   xmlns:inkscape="http://www.inkscape.org/namespaces/inkscape"
   xmlns:sodipodi="http://sodipodi.sourceforge.net/DTD/sodipodi-0.dtd"
   xmlns="http://www.w3.org/2000/svg"
   xmlns:svg="http://www.w3.org/2000/svg">
  <sodipodi:namedview
     id="namedview7"
     pagecolor="#1b1b1b"
     bordercolor="#343434"
     borderopacity="0.24705882"
     inkscape:showpageshadow="2"
     inkscape:pageopacity="0"
     inkscape:pagecheckerboard="0"
     inkscape:deskcolor="#898989"
     inkscape:document-units="mm"
     showgrid="true"
     inkscape:zoom="7.2773437"
     inkscape:cx="92.478798"
     inkscape:cy="71.248524"
     inkscape:window-width="3840"
     inkscape:window-height="2091"
     inkscape:window-x="3840"
     inkscape:window-y="32"
     inkscape:window-maximized="1"
     inkscape:current-layer="layer1">
    <inkscape:grid
       type="xygrid"
       id="grid132"
       empspacing="8"
       dotted="true"
       enabled="true"
       originx="0"
       originy="0" />
  </sodipodi:namedview>
  <defs
     id="defs2" />
  <g
     inkscape:label="Layer 1"
     inkscape:groupmode="layer"
     id="layer1">
    <path
       id="path1592"
       style="font-style:italic;font-size:128px;font-family:'DejaVu Sans';-inkscape-font-specification:'DejaVu Sans Italic';font-variation-settings:normal;text-align:center;baseline-shift:baseline;text-anchor:middle;vector-effect:none;fill:#86a7ac;fill-opacity:1;stroke-width:1;stroke-linecap:butt;stroke-linejoin:miter;stroke-miterlimit:4;stroke-dasharray:none;stroke-dashoffset:0;stroke-opacity:1;-inkscape-stroke:none;stop-color:#000000"
       d="M 120,11 C 100.00002,11 76.999965,40.000051 42.15625,90.9375 36.770838,64.291694 27.999998,17.999993 26,11 H 13 c 1.999998,6.999993 13.062507,62.000031 19.59375,93 H 51 C 64.02273,83.219048 73.828569,67.255384 81.853516,54.755859 80.769628,59.492548 80.21875,64.281699 80.21875,69.125 80.21875,80.708321 86.291674,89.500006 93,96 c 6.749993,6.49999 13.04168,8 25,8 h 31 l 2,-11 h -30 c -8.37499,0 -14.58333,-0.541671 -19,-5 -4.374996,-4.458329 -8.46875,-9.875009 -8.46875,-18.375 0,-5.083328 0.645834,-10.125005 1.9375,-15.125 1.333332,-5.041662 3.250002,-9.812505 5.75,-14.3125 C 105.13542,33.187507 109.62501,28.416664 115,25 c 5.99999,-2.999997 13.87501,-4 21,-4 l 64.1875,0.06249 c 10.66665,0 18.50001,2.104175 23.5,6.3125 5,4.166659 7.5,10.729185 7.5,19.6875 0,14.791637 -3.87502,26.250016 -11.625,34.375 -7.74998,8.124984 -18.68752,12.1875 -32.8125,12.1875 h -16.5 L 183,26 h -13 l -14.5,78 h 27.3125 c 10.41665,0 19.43752,-1.27084 27.0625,-3.8125 7.62498,-2.541661 13.91667,-6.395843 18.875,-11.5625 4.91666,-5.041657 8.77084,-11.229181 11.5625,-18.5625 2.79166,-7.374986 4.1875,-15.041683 4.1875,-23 0,-12.041643 -3.68752,-21.104179 -11.0625,-27.1875 C 226.10418,13.750012 215.41664,11 201,11 Z"
       sodipodi:nodetypes="cccccccscsccscsccccccsssccccssccsccc" />
    <path
       id="path1921"
       style="font-weight:bold;font-size:50px;font-family:'Noto Sans';-inkscape-font-specification:'Noto Sans Bold';text-align:center;text-anchor:middle;fill:#666666;fill-opacity:1"
       d="M 120.97461 115.75 C 117.07461 115.75 113.85755 116.51745 111.32422 118.05078 C 108.82422 119.55078 106.95794 121.66706 105.72461 124.40039 C 104.52461 127.13372 103.92578 130.35078 103.92578 134.05078 C 103.92578 137.75078 104.52461 140.98334 105.72461 143.75 C 106.95794 146.51666 108.82422 148.66589 111.32422 150.19922 C 113.85755 151.73255 117.05912 152.5 120.92578 152.5 C 124.82578 152.5 128.02539 151.73255 130.52539 150.19922 C 133.02539 148.66589 134.87422 146.53411 136.07422 143.80078 C 137.30755 141.03412 137.92578 137.79961 137.92578 134.09961 C 137.92578 130.39961 137.30755 127.18255 136.07422 124.44922 C 134.87422 121.68255 133.02539 119.55078 130.52539 118.05078 C 128.02539 116.51745 124.84127 115.75 120.97461 115.75 z M 59.525391 116.30078 L 59.525391 152 L 67.074219 152 L 67.074219 138.30078 L 71.125 138.30078 L 79.625 152 L 88.025391 152 L 77.525391 136.44922 C 78.692056 135.91589 79.775392 135.23372 80.775391 134.40039 C 81.808723 133.53372 82.62461 132.50078 83.224609 131.30078 C 83.857942 130.06745 84.175781 128.63333 84.175781 127 C 84.175781 123.4 83.009112 120.71588 80.675781 118.94922 C 78.375784 117.18255 74.792443 116.30078 69.925781 116.30078 L 59.525391 116.30078 z M 158.32422 116.30078 L 158.32422 152 L 165.07422 152 L 165.07422 135.40039 C 165.07422 134.16706 165.04128 132.80078 164.97461 131.30078 C 164.90794 129.76745 164.84206 128.33333 164.77539 127 L 164.625 124 L 164.82422 124 L 173.42578 152 L 180.375 152 L 189.57422 124.05078 L 189.77539 124.05078 L 189.625 127.05078 C 189.59167 128.35078 189.54128 129.73255 189.47461 131.19922 C 189.44128 132.66588 189.42578 133.96628 189.42578 135.09961 L 189.42578 152 L 196.47461 152 L 196.47461 116.30078 L 186.17578 116.30078 L 177.22461 143.59961 L 177.07422 143.59961 L 168.625 116.30078 L 158.32422 116.30078 z M 120.97461 122.05078 C 124.17461 122.05078 126.475 123.11667 127.875 125.25 C 129.275 127.38333 129.97461 130.33295 129.97461 134.09961 C 129.97461 137.83294 129.275 140.78255 127.875 142.94922 C 126.475 145.08255 124.15911 146.15039 120.92578 146.15039 C 117.75912 146.15039 115.45872 145.08255 114.02539 142.94922 C 112.59206 140.78255 111.875 137.83294 111.875 134.09961 C 111.875 130.33295 112.59206 127.38333 114.02539 125.25 C 115.45872 123.11667 117.77461 122.05078 120.97461 122.05078 z M 67.074219 122.5 L 69.375 122.5 C 71.841664 122.5 73.642058 122.86628 74.775391 123.59961 C 75.942056 124.29961 76.525391 125.49922 76.525391 127.19922 C 76.525391 128.83255 75.974999 130.06706 74.875 130.90039 C 73.808334 131.73372 72.025388 132.15039 69.525391 132.15039 L 67.074219 132.15039 L 67.074219 122.5 z " />
  </g>
</svg>
