<?xml version="1.0" standalone="no"?>
<!DOCTYPE svg PUBLIC "-//W3C//DTD SVG 20010904//EN"
 "http://www.w3.org/TR/2001/REC-SVG-20010904/DTD/svg10.dtd">
<svg version="1.0" xmlns="http://www.w3.org/2000/svg"
 width="348.000000pt" height="348.000000pt" viewBox="0 0 348.000000 348.000000"
 preserveAspectRatio="xMidYMid meet">
<metadata>
Created by potrace 1.14, written by Peter Selinger 2001-2017
</metadata>
<g transform="translate(0.000000,348.000000) scale(0.100000,-0.100000)"
fill="#000000" stroke="none">
<path d="M660 2928 c-56 -172 -110 -338 -120 -368 -10 -30 -69 -210 -130 -400
-62 -190 -143 -441 -182 -558 -39 -118 -66 -217 -62 -222 5 -4 234 -171 509
-371 275 -199 622 -451 770 -559 149 -108 276 -199 283 -204 8 -5 59 27 140
85 70 51 172 125 227 165 55 40 111 81 125 92 14 10 257 186 540 392 283 205
525 381 537 390 l21 16 -54 165 c-30 90 -57 171 -59 179 -2 8 -17 56 -33 105
-16 50 -76 232 -132 405 -56 173 -130 401 -164 505 -34 105 -84 259 -111 343
l-49 152 -978 0 -977 0 -101 -312z m1942 -228 c42 -129 77 -237 77 -240 1 -3
-311 -5 -691 -5 l-693 0 -42 -125 c-23 -69 -42 -132 -42 -140 -1 -14 85 -16
780 -16 l782 0 28 -84 c15 -47 68 -208 117 -359 l89 -275 -101 -73 c-55 -41
-153 -111 -216 -158 -63 -46 -303 -221 -534 -388 l-418 -305 -122 89 c-66 49
-131 96 -143 105 -75 55 -524 381 -710 517 l-223 162 401 3 402 2 176 -128
c97 -71 185 -135 197 -142 20 -12 51 8 403 264 209 153 381 279 381 281 0 2
-431 4 -957 4 -527 0 -967 0 -978 1 -19 0 -14 19 61 248 44 136 136 417 204
625 l124 377 785 -2 785 -3 78 -235z"/>
</g>
</svg>
