<svg xmlns="http://www.w3.org/2000/svg" xmlns:xlink="http://www.w3.org/1999/xlink" width="442.45" height="40" version="1.1" viewBox="0 0 442.45000000000005 40"><path d="M5.17749553,20.7048794 L10.648873,3.98080429 L31.6145259,3.98080429 L33.7424329,10.4870777 L15.2226118,10.4870777 L14.0381753,14.1780161 L34.949517,14.1780161 L38.0932379,23.7904558 L21.1316995,36.1159249 L5.01187835,24.3958177 L15.8968873,24.3958177 L21.0837209,28.1668633 L31.3470483,20.7088472 L5.17749553,20.7048794 L5.17749553,20.7048794 Z M34.142254,0.0129758713 L8.1211449,0.0129758713 L0.0800715564,24.7221448 L21.1316995,39.9870241 L42.1833274,24.7166756 L34.142254,0.0129758713 L34.142254,0.0129758713 Z" fill="white"></path><path fill="white" d="M2.50 6.70L13.90 6.70L13.88 8.88L4.90 8.88L4.90 14.63L12.98 14.63L12.98 16.80L4.90 16.80L4.90 24.20L2.50 24.20L2.50 6.70ZM18.80 13.83Q19.45 12.40 20.65 11.66Q21.85 10.93 23.50 10.90L23.50 13.15Q21.48 13.08 20.23 14.20Q18.98 15.33 18.80 17.23L18.80 24.20L16.48 24.20L16.48 10.98L18.80 10.98L18.80 13.83ZM31.32 10.90Q34.40 10.90 35.98 12.71Q37.55 14.53 37.55 17.75Q37.55 18.25 37.52 18.50L27.07 18.50Q27.35 20.28 28.56 21.33Q29.77 22.38 31.55 22.38Q32.73 22.38 33.74 21.95Q34.75 21.53 35.50 20.75L36.77 22.08Q35.80 23.13 34.42 23.70Q33.05 24.28 31.38 24.28Q29.43 24.28 27.91 23.44Q26.40 22.60 25.56 21.08Q24.73 19.55 24.73 17.60Q24.73 15.65 25.56 14.14Q26.40 12.63 27.90 11.76Q29.40 10.90 31.32 10.90M35.45 16.70Q35.35 14.90 34.25 13.86Q33.15 12.83 31.35 12.83Q29.60 12.83 28.44 13.88Q27.27 14.93 27.05 16.70L35.45 16.70ZM46.03 10.90Q49.10 10.90 50.68 12.71Q52.25 14.53 52.25 17.75Q52.25 18.25 52.23 18.50L41.78 18.50Q42.05 20.28 43.26 21.33Q44.48 22.38 46.25 22.38Q47.43 22.38 48.44 21.95Q49.45 21.53 50.20 20.75L51.48 22.08Q50.50 23.13 49.13 23.70Q47.75 24.28 46.08 24.28Q44.13 24.28 42.61 23.44Q41.10 22.60 40.26 21.08Q39.43 19.55 39.43 17.60Q39.43 15.65 40.26 14.14Q41.10 12.63 42.60 11.76Q44.10 10.90 46.03 10.90M50.15 16.70Q50.05 14.90 48.95 13.86Q47.85 12.83 46.05 12.83Q44.30 12.83 43.14 13.88Q41.98 14.93 41.75 16.70L50.15 16.70ZM67.75 5.65L67.75 24.20L65.43 24.20L65.43 21.58Q64.68 22.90 63.41 23.61Q62.15 24.33 60.48 24.33Q58.60 24.33 57.16 23.46Q55.73 22.60 54.93 21.06Q54.13 19.53 54.13 17.55Q54.13 15.60 54.93 14.09Q55.73 12.58 57.16 11.73Q58.60 10.88 60.45 10.88Q62.15 10.88 63.43 11.58Q64.70 12.28 65.43 13.60L65.43 5.65L67.75 5.65M60.95 22.33Q62.25 22.33 63.26 21.73Q64.28 21.13 64.85 20.05Q65.43 18.98 65.43 17.63Q65.43 16.25 64.85 15.18Q64.28 14.10 63.26 13.50Q62.25 12.90 60.95 12.90Q59.65 12.90 58.64 13.51Q57.63 14.13 57.05 15.20Q56.48 16.28 56.48 17.63Q56.48 18.98 57.05 20.05Q57.63 21.13 58.64 21.73Q59.65 22.33 60.95 22.33ZM77.93 10.90Q79.90 10.90 81.44 11.75Q82.98 12.60 83.84 14.11Q84.70 15.63 84.70 17.58Q84.70 19.53 83.84 21.05Q82.98 22.58 81.44 23.43Q79.90 24.28 77.93 24.28Q75.93 24.28 74.39 23.43Q72.85 22.58 71.99 21.06Q71.13 19.55 71.13 17.58Q71.13 15.63 71.99 14.11Q72.85 12.60 74.39 11.75Q75.93 10.90 77.93 10.90M77.93 12.93Q76.63 12.93 75.61 13.53Q74.60 14.13 74.04 15.19Q73.48 16.25 73.48 17.60Q73.48 18.98 74.04 20.05Q74.60 21.13 75.61 21.71Q76.63 22.30 77.93 22.30Q79.20 22.30 80.21 21.71Q81.23 21.13 81.79 20.05Q82.35 18.98 82.35 17.60Q82.35 16.25 81.79 15.19Q81.23 14.13 80.21 13.53Q79.20 12.93 77.93 12.93ZM105.03 10.90Q107.30 10.90 108.60 12.28Q109.90 13.65 109.90 16.03L109.90 24.20L107.55 24.20L107.55 16.65Q107.55 14.98 106.64 14.03Q105.73 13.08 104.13 13.08Q102.25 13.13 101.18 14.40Q100.10 15.68 100.10 17.68L100.10 24.20L97.75 24.20L97.75 16.65Q97.75 14.98 96.85 14.03Q95.95 13.08 94.33 13.08Q92.45 13.13 91.36 14.40Q90.28 15.68 90.28 17.68L90.28 24.20L87.95 24.20L87.95 10.98L90.28 10.98L90.28 13.75Q91.58 10.95 95.20 10.90Q97.03 10.90 98.24 11.78Q99.45 12.65 99.88 14.23Q101.10 10.95 105.03 10.90ZM131.05 10.35Q129.82 9.58 128.51 9.19Q127.20 8.80 126.10 8.80Q124.58 8.80 123.66 9.39Q122.75 9.98 122.75 11.00Q122.75 11.93 123.30 12.51Q123.85 13.10 124.65 13.44Q125.45 13.78 126.88 14.23Q128.65 14.78 129.75 15.28Q130.85 15.78 131.63 16.76Q132.40 17.75 132.40 19.38Q132.40 20.88 131.59 22.00Q130.78 23.13 129.31 23.74Q127.85 24.35 125.95 24.35Q124.03 24.35 122.20 23.60Q120.38 22.85 119.05 21.60L120.13 19.53Q121.38 20.75 122.94 21.41Q124.50 22.08 125.98 22.08Q127.73 22.08 128.74 21.39Q129.75 20.70 129.75 19.53Q129.75 18.60 129.20 18.00Q128.65 17.40 127.81 17.05Q126.98 16.70 125.55 16.28Q123.80 15.75 122.70 15.25Q121.60 14.75 120.84 13.78Q120.08 12.80 120.08 11.20Q120.08 9.80 120.85 8.73Q121.63 7.65 123.03 7.08Q124.42 6.50 126.28 6.50Q127.85 6.50 129.36 6.96Q130.88 7.43 132.05 8.20L131.05 10.35ZM143.10 23.33Q141.57 24.30 140 24.30Q138.42 24.30 137.45 23.36Q136.47 22.43 136.47 20.53L136.47 13.20L134.60 13.20L134.60 11.43L136.47 11.43L136.47 7.88L138.82 7.88L138.82 11.43L142.88 11.43L142.88 13.20L138.82 13.20L138.82 20.10Q138.82 21.20 139.22 21.68Q139.63 22.15 140.42 22.15Q141.38 22.15 142.47 21.53L143.10 23.33ZM157.63 10.98L157.63 24.20L155.28 24.20L155.28 21.40Q153.97 24.23 150.38 24.28Q148.08 24.28 146.78 22.91Q145.47 21.55 145.47 19.15L145.47 10.98L147.83 10.98L147.83 18.53Q147.83 20.20 148.74 21.14Q149.65 22.08 151.25 22.08Q153.10 22.05 154.19 20.76Q155.28 19.48 155.28 17.48L155.28 10.98L157.63 10.98ZM174.47 5.65L174.47 24.20L172.15 24.20L172.15 21.58Q171.40 22.90 170.14 23.61Q168.88 24.33 167.20 24.33Q165.32 24.33 163.89 23.46Q162.45 22.60 161.65 21.06Q160.85 19.53 160.85 17.55Q160.85 15.60 161.65 14.09Q162.45 12.58 163.89 11.73Q165.32 10.88 167.18 10.88Q168.88 10.88 170.15 11.58Q171.43 12.28 172.15 13.60L172.15 5.65L174.47 5.65M167.68 22.33Q168.97 22.33 169.99 21.73Q171 21.13 171.57 20.05Q172.15 18.98 172.15 17.63Q172.15 16.25 171.57 15.18Q171 14.10 169.99 13.50Q168.97 12.90 167.68 12.90Q166.38 12.90 165.36 13.51Q164.35 14.13 163.78 15.20Q163.20 16.28 163.20 17.63Q163.20 18.98 163.78 20.05Q164.35 21.13 165.36 21.73Q166.38 22.33 167.68 22.33ZM179.15 10.98L181.47 10.98L181.47 24.20L179.15 24.20L179.15 10.98M180.30 5.70Q180.93 5.70 181.34 6.13Q181.75 6.55 181.75 7.20Q181.75 7.85 181.34 8.28Q180.93 8.70 180.30 8.70Q179.68 8.70 179.26 8.28Q178.85 7.85 178.85 7.20Q178.85 6.55 179.26 6.13Q179.68 5.70 180.30 5.70ZM191.50 10.90Q193.47 10.90 195.01 11.75Q196.55 12.60 197.41 14.11Q198.28 15.63 198.28 17.58Q198.28 19.53 197.41 21.05Q196.55 22.58 195.01 23.43Q193.47 24.28 191.50 24.28Q189.50 24.28 187.96 23.43Q186.42 22.58 185.56 21.06Q184.70 19.55 184.70 17.58Q184.70 15.63 185.56 14.11Q186.42 12.60 187.96 11.75Q189.50 10.90 191.50 10.90M191.50 12.93Q190.20 12.93 189.19 13.53Q188.17 14.13 187.61 15.19Q187.05 16.25 187.05 17.60Q187.05 18.98 187.61 20.05Q188.17 21.13 189.19 21.71Q190.20 22.30 191.50 22.30Q192.78 22.30 193.79 21.71Q194.80 21.13 195.36 20.05Q195.92 18.98 195.92 17.60Q195.92 16.25 195.36 15.19Q194.80 14.13 193.79 13.53Q192.78 12.93 191.50 12.93Z" transform="translate(47.5, 4)"></path><path fill="white" d="M9.15 6.73Q12.38 6.73 14.13 8.23Q15.88 9.73 15.88 12.48Q15.88 15.30 14.13 16.84Q12.38 18.38 9.15 18.38L4.05 18.38L4.05 24.20L3 24.20L3 6.73L9.15 6.73M9.13 17.35Q11.88 17.35 13.38 16.09Q14.88 14.83 14.88 12.50Q14.88 10.20 13.38 8.98Q11.88 7.75 9.13 7.75L4.05 7.75L4.05 17.35L9.13 17.35ZM19.20 11.18L20.23 11.18L20.23 24.20L19.20 24.20L19.20 11.18M19.73 6.53Q20.08 6.53 20.34 6.79Q20.60 7.05 20.60 7.43Q20.60 7.83 20.34 8.09Q20.08 8.35 19.73 8.35Q19.38 8.35 19.11 8.09Q18.85 7.83 18.85 7.43Q18.85 7.05 19.11 6.79Q19.38 6.53 19.73 6.53ZM32.15 11.15Q33.95 11.15 35.39 11.99Q36.83 12.83 37.63 14.31Q38.43 15.80 38.43 17.70Q38.43 19.58 37.63 21.06Q36.83 22.55 35.40 23.39Q33.98 24.23 32.15 24.23Q30.25 24.23 28.81 23.31Q27.38 22.40 26.63 20.80L26.63 29.05L25.58 29.05L25.58 11.18L26.63 11.18L26.63 14.60Q27.38 12.98 28.81 12.06Q30.25 11.15 32.15 11.15M32 23.25Q33.55 23.25 34.79 22.54Q36.03 21.83 36.71 20.56Q37.40 19.30 37.40 17.70Q37.40 16.10 36.71 14.84Q36.03 13.58 34.79 12.85Q33.55 12.13 32 12.13Q30.45 12.13 29.23 12.85Q28 13.58 27.31 14.84Q26.63 16.10 26.63 17.70Q26.63 19.30 27.31 20.56Q28 21.83 29.23 22.54Q30.45 23.25 32 23.25ZM47.17 11.15Q49.05 11.15 50.44 12.01Q51.83 12.88 52.54 14.43Q53.25 15.98 53.23 17.98L41.85 17.98Q41.92 19.55 42.63 20.75Q43.33 21.95 44.52 22.61Q45.73 23.28 47.23 23.28Q48.55 23.28 49.69 22.81Q50.83 22.35 51.63 21.48L52.23 22.15Q51.30 23.15 50 23.69Q48.70 24.23 47.17 24.23Q45.35 24.23 43.90 23.39Q42.45 22.55 41.64 21.06Q40.83 19.58 40.83 17.70Q40.83 15.83 41.65 14.33Q42.48 12.83 43.91 11.99Q45.35 11.15 47.17 11.15M52.27 17.05Q52.13 14.80 50.75 13.45Q49.38 12.10 47.17 12.10Q44.98 12.10 43.52 13.46Q42.08 14.83 41.88 17.05L52.27 17.05ZM57.08 5.65L58.13 5.65L58.13 24.20L57.08 24.20L57.08 5.65ZM63.45 11.18L64.47 11.18L64.47 24.20L63.45 24.20L63.45 11.18M63.98 6.53Q64.33 6.53 64.59 6.79Q64.85 7.05 64.85 7.43Q64.85 7.83 64.59 8.09Q64.33 8.35 63.98 8.35Q63.63 8.35 63.36 8.09Q63.10 7.83 63.10 7.43Q63.10 7.05 63.36 6.79Q63.63 6.53 63.98 6.53ZM76.07 11.15Q78.45 11.15 79.79 12.51Q81.13 13.88 81.13 16.25L81.13 24.20L80.07 24.20L80.07 16.45Q80.07 14.45 78.95 13.33Q77.82 12.20 75.82 12.20Q73.60 12.25 72.26 13.56Q70.92 14.88 70.75 17.15L70.75 24.20L69.70 24.20L69.70 11.18L70.75 11.18L70.75 14.50Q71.40 12.90 72.76 12.05Q74.13 11.20 76.07 11.15ZM90.85 11.15Q92.72 11.15 94.11 12.01Q95.50 12.88 96.21 14.43Q96.92 15.98 96.90 17.98L85.52 17.98Q85.60 19.55 86.30 20.75Q87 21.95 88.20 22.61Q89.40 23.28 90.90 23.28Q92.22 23.28 93.36 22.81Q94.50 22.35 95.30 21.48L95.90 22.15Q94.97 23.15 93.67 23.69Q92.38 24.23 90.85 24.23Q89.02 24.23 87.58 23.39Q86.13 22.55 85.31 21.06Q84.50 19.58 84.50 17.70Q84.50 15.83 85.33 14.33Q86.15 12.83 87.59 11.99Q89.02 11.15 90.85 11.15M95.95 17.05Q95.80 14.80 94.42 13.45Q93.05 12.10 90.85 12.10Q88.65 12.10 87.20 13.46Q85.75 14.83 85.55 17.05L95.95 17.05ZM105.40 6.73L106.58 6.73L113.20 22.95L119.85 6.73L121 6.73L113.75 24.20L112.65 24.20L105.40 6.73ZM123.80 11.18L124.83 11.18L124.83 24.20L123.80 24.20L123.80 11.18M124.33 6.53Q124.67 6.53 124.94 6.79Q125.20 7.05 125.20 7.43Q125.20 7.83 124.94 8.09Q124.67 8.35 124.33 8.35Q123.98 8.35 123.71 8.09Q123.45 7.83 123.45 7.43Q123.45 7.05 123.71 6.79Q123.98 6.53 124.33 6.53ZM135 11.15Q136.88 11.15 138.26 12.01Q139.65 12.88 140.36 14.43Q141.07 15.98 141.05 17.98L129.68 17.98Q129.75 19.55 130.45 20.75Q131.15 21.95 132.35 22.61Q133.55 23.28 135.05 23.28Q136.38 23.28 137.51 22.81Q138.65 22.35 139.45 21.48L140.05 22.15Q139.13 23.15 137.82 23.69Q136.53 24.23 135 24.23Q133.18 24.23 131.72 23.39Q130.28 22.55 129.46 21.06Q128.65 19.58 128.65 17.70Q128.65 15.83 129.47 14.33Q130.30 12.83 131.74 11.99Q133.18 11.15 135 11.15M140.10 17.05Q139.95 14.80 138.57 13.45Q137.20 12.10 135 12.10Q132.80 12.10 131.35 13.46Q129.90 14.83 129.70 17.05L140.10 17.05ZM142.38 11.18L143.50 11.18L147.85 23.08L152.18 11.18L153.30 11.18L157.65 23.08L161.98 11.18L163.08 11.18L158.15 24.20L157.08 24.20L152.75 12.55L148.38 24.20L147.30 24.20L142.38 11.18ZM170.60 11.15Q172.48 11.15 173.86 12.01Q175.25 12.88 175.96 14.43Q176.68 15.98 176.65 17.98L165.28 17.98Q165.35 19.55 166.05 20.75Q166.75 21.95 167.95 22.61Q169.15 23.28 170.65 23.28Q171.98 23.28 173.11 22.81Q174.25 22.35 175.05 21.48L175.65 22.15Q174.73 23.15 173.43 23.69Q172.13 24.23 170.60 24.23Q168.78 24.23 167.33 23.39Q165.88 22.55 165.06 21.06Q164.25 19.58 164.25 17.70Q164.25 15.83 165.08 14.33Q165.90 12.83 167.34 11.99Q168.78 11.15 170.60 11.15M175.70 17.05Q175.55 14.80 174.18 13.45Q172.80 12.10 170.60 12.10Q168.40 12.10 166.95 13.46Q165.50 14.83 165.30 17.05L175.70 17.05ZM181.43 14.45Q182.05 12.88 183.29 12.04Q184.53 11.20 186.28 11.15L186.28 12.23Q184.15 12.23 182.88 13.54Q181.60 14.85 181.43 17.15L181.43 24.20L180.38 24.20L180.38 11.18L181.43 11.18L181.43 14.45Z" transform="translate(248.75, 4)"></path></svg>