<svg xmlns="http://www.w3.org/2000/svg" xmlns:xlink="http://www.w3.org/1999/xlink" width="481.190625" height="45" version="1.1" viewBox="0 0 427.725 40"><path d="M5.17749553,20.7048794 L10.648873,3.98080429 L31.6145259,3.98080429 L33.7424329,10.4870777 L15.2226118,10.4870777 L14.0381753,14.1780161 L34.949517,14.1780161 L38.0932379,23.7904558 L21.1316995,36.1159249 L5.01187835,24.3958177 L15.8968873,24.3958177 L21.0837209,28.1668633 L31.3470483,20.7088472 L5.17749553,20.7048794 L5.17749553,20.7048794 Z M34.142254,0.0129758713 L8.1211449,0.0129758713 L0.0800715564,24.7221448 L21.1316995,39.9870241 L42.1833274,24.7166756 L34.142254,0.0129758713 L34.142254,0.0129758713 Z" fill="white"></path><path fill="white" d="M2.50 6.70L13.90 6.70L13.88 8.88L4.90 8.88L4.90 14.63L12.98 14.63L12.98 16.80L4.90 16.80L4.90 24.20L2.50 24.20L2.50 6.70ZM18.80 13.83Q19.45 12.40 20.65 11.66Q21.85 10.93 23.50 10.90L23.50 13.15Q21.48 13.08 20.23 14.20Q18.98 15.33 18.80 17.23L18.80 24.20L16.48 24.20L16.48 10.98L18.80 10.98L18.80 13.83ZM31.32 10.90Q34.40 10.90 35.98 12.71Q37.55 14.53 37.55 17.75Q37.55 18.25 37.52 18.50L27.07 18.50Q27.35 20.28 28.56 21.33Q29.77 22.38 31.55 22.38Q32.73 22.38 33.74 21.95Q34.75 21.53 35.50 20.75L36.77 22.08Q35.80 23.13 34.42 23.70Q33.05 24.28 31.38 24.28Q29.43 24.28 27.91 23.44Q26.40 22.60 25.56 21.08Q24.73 19.55 24.73 17.60Q24.73 15.65 25.56 14.14Q26.40 12.63 27.90 11.76Q29.40 10.90 31.32 10.90M35.45 16.70Q35.35 14.90 34.25 13.86Q33.15 12.83 31.35 12.83Q29.60 12.83 28.44 13.88Q27.27 14.93 27.05 16.70L35.45 16.70ZM46.03 10.90Q49.10 10.90 50.68 12.71Q52.25 14.53 52.25 17.75Q52.25 18.25 52.23 18.50L41.78 18.50Q42.05 20.28 43.26 21.33Q44.48 22.38 46.25 22.38Q47.43 22.38 48.44 21.95Q49.45 21.53 50.20 20.75L51.48 22.08Q50.50 23.13 49.13 23.70Q47.75 24.28 46.08 24.28Q44.13 24.28 42.61 23.44Q41.10 22.60 40.26 21.08Q39.43 19.55 39.43 17.60Q39.43 15.65 40.26 14.14Q41.10 12.63 42.60 11.76Q44.10 10.90 46.03 10.90M50.15 16.70Q50.05 14.90 48.95 13.86Q47.85 12.83 46.05 12.83Q44.30 12.83 43.14 13.88Q41.98 14.93 41.75 16.70L50.15 16.70ZM67.75 5.65L67.75 24.20L65.43 24.20L65.43 21.58Q64.68 22.90 63.41 23.61Q62.15 24.33 60.48 24.33Q58.60 24.33 57.16 23.46Q55.73 22.60 54.93 21.06Q54.13 19.53 54.13 17.55Q54.13 15.60 54.93 14.09Q55.73 12.58 57.16 11.73Q58.60 10.88 60.45 10.88Q62.15 10.88 63.43 11.58Q64.70 12.28 65.43 13.60L65.43 5.65L67.75 5.65M60.95 22.33Q62.25 22.33 63.26 21.73Q64.28 21.13 64.85 20.05Q65.43 18.98 65.43 17.63Q65.43 16.25 64.85 15.18Q64.28 14.10 63.26 13.50Q62.25 12.90 60.95 12.90Q59.65 12.90 58.64 13.51Q57.63 14.13 57.05 15.20Q56.48 16.28 56.48 17.63Q56.48 18.98 57.05 20.05Q57.63 21.13 58.64 21.73Q59.65 22.33 60.95 22.33ZM77.93 10.90Q79.90 10.90 81.44 11.75Q82.98 12.60 83.84 14.11Q84.70 15.63 84.70 17.58Q84.70 19.53 83.84 21.05Q82.98 22.58 81.44 23.43Q79.90 24.28 77.93 24.28Q75.93 24.28 74.39 23.43Q72.85 22.58 71.99 21.06Q71.13 19.55 71.13 17.58Q71.13 15.63 71.99 14.11Q72.85 12.60 74.39 11.75Q75.93 10.90 77.93 10.90M77.93 12.93Q76.63 12.93 75.61 13.53Q74.60 14.13 74.04 15.19Q73.48 16.25 73.48 17.60Q73.48 18.98 74.04 20.05Q74.60 21.13 75.61 21.71Q76.63 22.30 77.93 22.30Q79.20 22.30 80.21 21.71Q81.23 21.13 81.79 20.05Q82.35 18.98 82.35 17.60Q82.35 16.25 81.79 15.19Q81.23 14.13 80.21 13.53Q79.20 12.93 77.93 12.93ZM105.03 10.90Q107.30 10.90 108.60 12.28Q109.90 13.65 109.90 16.03L109.90 24.20L107.55 24.20L107.55 16.65Q107.55 14.98 106.64 14.03Q105.73 13.08 104.13 13.08Q102.25 13.13 101.18 14.40Q100.10 15.68 100.10 17.68L100.10 24.20L97.75 24.20L97.75 16.65Q97.75 14.98 96.85 14.03Q95.95 13.08 94.33 13.08Q92.45 13.13 91.36 14.40Q90.28 15.68 90.28 17.68L90.28 24.20L87.95 24.20L87.95 10.98L90.28 10.98L90.28 13.75Q91.58 10.95 95.20 10.90Q97.03 10.90 98.24 11.78Q99.45 12.65 99.88 14.23Q101.10 10.95 105.03 10.90ZM131.05 10.35Q129.82 9.58 128.51 9.19Q127.20 8.80 126.10 8.80Q124.58 8.80 123.66 9.39Q122.75 9.98 122.75 11.00Q122.75 11.93 123.30 12.51Q123.85 13.10 124.65 13.44Q125.45 13.78 126.88 14.23Q128.65 14.78 129.75 15.28Q130.85 15.78 131.63 16.76Q132.40 17.75 132.40 19.38Q132.40 20.88 131.59 22.00Q130.78 23.13 129.31 23.74Q127.85 24.35 125.95 24.35Q124.03 24.35 122.20 23.60Q120.38 22.85 119.05 21.60L120.13 19.53Q121.38 20.75 122.94 21.41Q124.50 22.08 125.98 22.08Q127.73 22.08 128.74 21.39Q129.75 20.70 129.75 19.53Q129.75 18.60 129.20 18.00Q128.65 17.40 127.81 17.05Q126.98 16.70 125.55 16.28Q123.80 15.75 122.70 15.25Q121.60 14.75 120.84 13.78Q120.08 12.80 120.08 11.20Q120.08 9.80 120.85 8.73Q121.63 7.65 123.03 7.08Q124.42 6.50 126.28 6.50Q127.85 6.50 129.36 6.96Q130.88 7.43 132.05 8.20L131.05 10.35ZM143.10 23.33Q141.57 24.30 140 24.30Q138.42 24.30 137.45 23.36Q136.47 22.43 136.47 20.53L136.47 13.20L134.60 13.20L134.60 11.43L136.47 11.43L136.47 7.88L138.82 7.88L138.82 11.43L142.88 11.43L142.88 13.20L138.82 13.20L138.82 20.10Q138.82 21.20 139.22 21.68Q139.63 22.15 140.42 22.15Q141.38 22.15 142.47 21.53L143.10 23.33ZM157.63 10.98L157.63 24.20L155.28 24.20L155.28 21.40Q153.97 24.23 150.38 24.28Q148.08 24.28 146.78 22.91Q145.47 21.55 145.47 19.15L145.47 10.98L147.83 10.98L147.83 18.53Q147.83 20.20 148.74 21.14Q149.65 22.08 151.25 22.08Q153.10 22.05 154.19 20.76Q155.28 19.48 155.28 17.48L155.28 10.98L157.63 10.98ZM174.47 5.65L174.47 24.20L172.15 24.20L172.15 21.58Q171.40 22.90 170.14 23.61Q168.88 24.33 167.20 24.33Q165.32 24.33 163.89 23.46Q162.45 22.60 161.65 21.06Q160.85 19.53 160.85 17.55Q160.85 15.60 161.65 14.09Q162.45 12.58 163.89 11.73Q165.32 10.88 167.18 10.88Q168.88 10.88 170.15 11.58Q171.43 12.28 172.15 13.60L172.15 5.65L174.47 5.65M167.68 22.33Q168.97 22.33 169.99 21.73Q171 21.13 171.57 20.05Q172.15 18.98 172.15 17.63Q172.15 16.25 171.57 15.18Q171 14.10 169.99 13.50Q168.97 12.90 167.68 12.90Q166.38 12.90 165.36 13.51Q164.35 14.13 163.78 15.20Q163.20 16.28 163.20 17.63Q163.20 18.98 163.78 20.05Q164.35 21.13 165.36 21.73Q166.38 22.33 167.68 22.33ZM179.15 10.98L181.47 10.98L181.47 24.20L179.15 24.20L179.15 10.98M180.30 5.70Q180.93 5.70 181.34 6.13Q181.75 6.55 181.75 7.20Q181.75 7.85 181.34 8.28Q180.93 8.70 180.30 8.70Q179.68 8.70 179.26 8.28Q178.85 7.85 178.85 7.20Q178.85 6.55 179.26 6.13Q179.68 5.70 180.30 5.70ZM191.50 10.90Q193.47 10.90 195.01 11.75Q196.55 12.60 197.41 14.11Q198.28 15.63 198.28 17.58Q198.28 19.53 197.41 21.05Q196.55 22.58 195.01 23.43Q193.47 24.28 191.50 24.28Q189.50 24.28 187.96 23.43Q186.42 22.58 185.56 21.06Q184.70 19.55 184.70 17.58Q184.70 15.63 185.56 14.11Q186.42 12.60 187.96 11.75Q189.50 10.90 191.50 10.90M191.50 12.93Q190.20 12.93 189.19 13.53Q188.17 14.13 187.61 15.19Q187.05 16.25 187.05 17.60Q187.05 18.98 187.61 20.05Q188.17 21.13 189.19 21.71Q190.20 22.30 191.50 22.30Q192.78 22.30 193.79 21.71Q194.80 21.13 195.36 20.05Q195.92 18.98 195.92 17.60Q195.92 16.25 195.36 15.19Q194.80 14.13 193.79 13.53Q192.78 12.93 191.50 12.93Z" transform="translate(47.5, 4)"></path><path fill="white" d="M16.33 6.73Q19.55 6.73 21.30 8.23Q23.05 9.73 23.05 12.48Q23.05 15.30 21.30 16.84Q19.55 18.38 16.33 18.38L11.23 18.38L11.23 24.20L10.18 24.20L10.18 6.73L16.33 6.73M16.30 17.35Q19.05 17.35 20.55 16.09Q22.05 14.83 22.05 12.50Q22.05 10.20 20.55 8.98Q19.05 7.75 16.30 7.75L11.23 7.75L11.23 17.35L16.30 17.35ZM26.38 11.18L27.40 11.18L27.40 24.20L26.38 24.20L26.38 11.18M26.90 6.53Q27.25 6.53 27.51 6.79Q27.78 7.05 27.78 7.43Q27.78 7.83 27.51 8.09Q27.25 8.35 26.90 8.35Q26.55 8.35 26.29 8.09Q26.03 7.83 26.03 7.43Q26.03 7.05 26.29 6.79Q26.55 6.53 26.90 6.53ZM39.33 11.15Q41.13 11.15 42.56 11.99Q44 12.83 44.80 14.31Q45.60 15.80 45.60 17.70Q45.60 19.58 44.80 21.06Q44 22.55 42.58 23.39Q41.15 24.23 39.33 24.23Q37.43 24.23 35.99 23.31Q34.55 22.40 33.80 20.80L33.80 29.05L32.75 29.05L32.75 11.18L33.80 11.18L33.80 14.60Q34.55 12.98 35.99 12.06Q37.43 11.15 39.33 11.15M39.18 23.25Q40.73 23.25 41.96 22.54Q43.20 21.83 43.89 20.56Q44.58 19.30 44.58 17.70Q44.58 16.10 43.89 14.84Q43.20 13.58 41.96 12.85Q40.73 12.13 39.18 12.13Q37.63 12.13 36.40 12.85Q35.18 13.58 34.49 14.84Q33.80 16.10 33.80 17.70Q33.80 19.30 34.49 20.56Q35.18 21.83 36.40 22.54Q37.63 23.25 39.18 23.25ZM49.53 5.65L50.58 5.65L50.58 24.20L49.53 24.20L49.53 5.65ZM55.90 11.18L56.93 11.18L56.93 24.20L55.90 24.20L55.90 11.18M56.43 6.53Q56.78 6.53 57.04 6.79Q57.30 7.05 57.30 7.43Q57.30 7.83 57.04 8.09Q56.78 8.35 56.43 8.35Q56.08 8.35 55.81 8.09Q55.55 7.83 55.55 7.43Q55.55 7.05 55.81 6.79Q56.08 6.53 56.43 6.53ZM68.53 11.15Q70.90 11.15 72.24 12.51Q73.58 13.88 73.58 16.25L73.58 24.20L72.53 24.20L72.53 16.45Q72.53 14.45 71.40 13.33Q70.28 12.20 68.28 12.20Q66.05 12.25 64.71 13.56Q63.38 14.88 63.20 17.15L63.20 24.20L62.15 24.20L62.15 11.18L63.20 11.18L63.20 14.50Q63.85 12.90 65.21 12.05Q66.58 11.20 68.53 11.15ZM83.30 11.15Q85.17 11.15 86.56 12.01Q87.95 12.88 88.66 14.43Q89.38 15.98 89.35 17.98L77.97 17.98Q78.05 19.55 78.75 20.75Q79.45 21.95 80.65 22.61Q81.85 23.28 83.35 23.28Q84.67 23.28 85.81 22.81Q86.95 22.35 87.75 21.48L88.35 22.15Q87.42 23.15 86.13 23.69Q84.83 24.23 83.30 24.23Q81.47 24.23 80.03 23.39Q78.58 22.55 77.76 21.06Q76.95 19.58 76.95 17.70Q76.95 15.83 77.78 14.33Q78.60 12.83 80.04 11.99Q81.47 11.15 83.30 11.15M88.40 17.05Q88.25 14.80 86.88 13.45Q85.50 12.10 83.30 12.10Q81.10 12.10 79.65 13.46Q78.20 14.83 78 17.05L88.40 17.05ZM97.85 6.73L99.02 6.73L105.65 22.95L112.30 6.73L113.45 6.73L106.20 24.20L105.10 24.20L97.85 6.73ZM116.25 11.18L117.27 11.18L117.27 24.20L116.25 24.20L116.25 11.18M116.77 6.53Q117.12 6.53 117.39 6.79Q117.65 7.05 117.65 7.43Q117.65 7.83 117.39 8.09Q117.12 8.35 116.77 8.35Q116.42 8.35 116.16 8.09Q115.90 7.83 115.90 7.43Q115.90 7.05 116.16 6.79Q116.42 6.53 116.77 6.53ZM127.45 11.15Q129.32 11.15 130.71 12.01Q132.10 12.88 132.81 14.43Q133.52 15.98 133.50 17.98L122.12 17.98Q122.20 19.55 122.90 20.75Q123.60 21.95 124.80 22.61Q126.00 23.28 127.50 23.28Q128.82 23.28 129.96 22.81Q131.10 22.35 131.90 21.48L132.50 22.15Q131.57 23.15 130.27 23.69Q128.97 24.23 127.45 24.23Q125.62 24.23 124.17 23.39Q122.72 22.55 121.91 21.06Q121.10 19.58 121.10 17.70Q121.10 15.83 121.92 14.33Q122.75 12.83 124.19 11.99Q125.62 11.15 127.45 11.15M132.55 17.05Q132.40 14.80 131.02 13.45Q129.65 12.10 127.45 12.10Q125.25 12.10 123.80 13.46Q122.35 14.83 122.15 17.05L132.55 17.05ZM134.82 11.18L135.95 11.18L140.30 23.08L144.63 11.18L145.75 11.18L150.10 23.08L154.43 11.18L155.53 11.18L150.60 24.20L149.53 24.20L145.20 12.55L140.82 24.20L139.75 24.20L134.82 11.18ZM163.05 11.15Q164.93 11.15 166.31 12.01Q167.70 12.88 168.41 14.43Q169.13 15.98 169.10 17.98L157.72 17.98Q157.80 19.55 158.50 20.75Q159.20 21.95 160.40 22.61Q161.60 23.28 163.10 23.28Q164.43 23.28 165.56 22.81Q166.70 22.35 167.50 21.48L168.10 22.15Q167.18 23.15 165.88 23.69Q164.57 24.23 163.05 24.23Q161.22 24.23 159.78 23.39Q158.32 22.55 157.51 21.06Q156.70 19.58 156.70 17.70Q156.70 15.83 157.53 14.33Q158.35 12.83 159.79 11.99Q161.22 11.15 163.05 11.15M168.15 17.05Q168 14.80 166.63 13.45Q165.25 12.10 163.05 12.10Q160.85 12.10 159.40 13.46Q157.95 14.83 157.75 17.05L168.15 17.05ZM173.88 14.45Q174.50 12.88 175.74 12.04Q176.97 11.20 178.72 11.15L178.72 12.23Q176.60 12.23 175.32 13.54Q174.05 14.85 173.88 17.15L173.88 24.20L172.82 24.20L172.82 11.18L173.88 11.18L173.88 14.45Z" transform="translate(248.75, 4)"></path></svg>